<?xml version="1.0" encoding="utf-8"?>
<svg xmlns="http://www.w3.org/2000/svg">
    <symbol 
        id="svgAdd"
        width="24" 
        height="24" 
        viewBox="0 0 24 24" 
        fill="none" 
        stroke="var(--icon-color,#000)" 
        stroke-width="1" 
        stroke-linecap="round" 
        stroke-linejoin="round" 
    >
        <path stroke="none" d="M0 0h24v24H0z" fill="none"/>
        <path d="M3 12a9 9 0 1 0 18 0a9 9 0 0 0 -18 0" />
        <path d="M9 12h6" />
        <path d="M12 9v6" />
    </symbol>
    <symbol 
        id="svgRestart"
        width="24"
        height="24" 
        viewBox="0 0 24 24"  fill="none" 
        stroke="var(--icon-color,#000)" 
        stroke-width="1" 
        stroke-linecap="round" 
        stroke-linejoin="round" 
    >
        <path stroke="none" d="M0 0h24v24H0z" fill="none"/>
        <path d="M4.05 11a8 8 0 1 1 .5 4m-.5 5v-5h5" />
    </symbol>
    <symbol 
        id="svgSave"
        width="24" 
        height="24" 
        viewBox="0 0 24 24" 
        fill="none" 
        stroke="var(--icon-color,#000)" 
        stroke-width="1" 
        stroke-linecap="round" 
        stroke-linejoin="round"  
    >
        <path stroke="none" d="M0 0h24v24H0z" fill="none"/>
        <path d="M6 4h10l4 4v10a2 2 0 0 1 -2 2h-12a2 2 0 0 1 -2 -2v-12a2 2 0 0 1 2 -2" />
        <path d="M12 14m-2 0a2 2 0 1 0 4 0a2 2 0 1 0 -4 0" />
        <path d="M14 4l0 4l-6 0l0 -4" />
    </symbol>
</svg>