<?xml version="1.0" encoding="utf-8"?>
<svg xmlns="http://www.w3.org/2000/svg">
    <symbol 
        id="svgAdd"
        width="24" 
        height="24" 
        viewBox="0 0 24 24" 
        fill="none" 
        stroke="var(--svg-color,#000)" 
        stroke-width="1" 
        stroke-linecap="round" 
        stroke-linejoin="round" 
    >
        <path stroke="none" d="M0 0h24v24H0z" fill="none"/>
        <path d="M3 12a9 9 0 1 0 18 0a9 9 0 0 0 -18 0" />
        <path d="M9 12h6" />
        <path d="M12 9v6" />
    </symbol>
    <symbol 
        id="svgRestart"
        width="24"
        height="24" 
        viewBox="0 0 24 24"  fill="none" 
        stroke="var(--svg-color,#000)" 
        stroke-width="1" 
        stroke-linecap="round" 
        stroke-linejoin="round" 
    >
        <path stroke="none" d="M0 0h24v24H0z" fill="none"/>
        <path d="M4.05 11a8 8 0 1 1 .5 4m-.5 5v-5h5" />
    </symbol>
    <symbol 
        id="svgSave"
        width="24" 
        height="24" 
        viewBox="0 0 24 24" 
        fill="none" 
        stroke="var(--svg-color,#000)" 
        stroke-width="1" 
        stroke-linecap="round" 
        stroke-linejoin="round"  
    >
        <path stroke="none" d="M0 0h24v24H0z" fill="none"/>
        <path d="M6 4h10l4 4v10a2 2 0 0 1 -2 2h-12a2 2 0 0 1 -2 -2v-12a2 2 0 0 1 2 -2" />
        <path d="M12 14m-2 0a2 2 0 1 0 4 0a2 2 0 1 0 -4 0" />
        <path d="M14 4l0 4l-6 0l0 -4" />
    </symbol>
    <symbol 
        id="svgWeb"
        width="24" 
        height="24"
        viewBox="0 0 24 24"
        fill="none"
        stroke="var(--svg-stroke,#000)"
        stroke-width="1"
    >
        <path
            stroke-linecap="round"
            stroke-linejoin="round"
            d="M12 21a9.004 9.004 0 0 0 8.716-6.747M12 21a9.004 9.004 0 0 1-8.716-6.747M12 21c2.485 0 4.5-4.03 4.5-9S14.485 3 12 3m0 18c-2.485 0-4.5-4.03-4.5-9S9.515 3 12 3m0 0a8.997 8.997 0 0 1 7.843 4.582M12 3a8.997 8.997 0 0 0-7.843 4.582m15.686 0A11.953 11.953 0 0 1 12 10.5c-2.998 0-5.74-1.1-7.843-2.918m15.686 0A8.959 8.959 0 0 1 21 12c0 .778-.099 1.533-.284 2.253m0 0A17.919 17.919 0 0 1 12 16.5c-3.162 0-6.133-.815-8.716-2.247m0 0A9.015 9.015 0 0 1 3 12c0-1.605.42-3.113 1.157-4.418"
        />
    </symbol>
</svg>