<?xml version="1.0" encoding="utf-8"?>
<svg xmlns="http://www.w3.org/2000/svg">
    <symbol 
        id="svgGit"
        fill="var(--icon-fill,#000)"
        viewBox="0 0 24 24"
    >
        <path
            fill-rule="evenodd"
            d="M12 2C6.477 2 2 6.484 2 12.017c0 4.425 2.865 8.18 6.839 9.504.5.092.682-.217.682-.483 0-.237-.008-.868-.013-1.703-2.782.605-3.369-1.343-3.369-1.343-.454-1.158-1.11-1.466-1.11-1.466-.908-.62.069-.608.069-.608 1.003.07 1.531 1.032 1.531 1.032.892 1.53 2.341 1.088 2.91.832.092-.647.35-1.088.636-1.338-2.22-.253-4.555-1.113-4.555-4.951 0-1.093.39-1.988 1.029-2.688-.103-.253-.446-1.272.098-2.65 0 0 .84-.27 2.75 1.026A9.564 9.564 0 0112 6.844c.85.004 1.705.115 2.504.337 1.909-1.296 2.747-1.027 2.747-1.027.546 1.379.202 2.398.1 2.651.64.7 1.028 1.595 1.028 2.688 0 3.848-2.339 4.695-4.566 4.943.359.309.678.92.678 1.855 0 1.338-.012 2.419-.012 2.747 0 .268.18.58.688.482A10.019 10.019 0 0022 12.017C22 6.484 17.522 2 12 2z"
            clip-rule="evenodd"
        />
    </symbol>
    <symbol
        id="svgTwitch"
        viewBox="0 0 16 16"
        fill="none"
    >
        <g fill="currentColor">
            <path d="M4.5 1L2 3.5v9h3V15l2.5-2.5h2L14 8V1H4.5zM13 7.5l-2 2H9l-1.75 1.75V9.5H5V2h8v5.5z" />
            <path d="M11.5 3.75h-1v3h1v-3zM8.75 3.75h-1v3h1v-3z" />
        </g>
    </symbol>
    <symbol
        id="svgTwitter"
        viewBox="0 0 16 16"
        aria-hidden="true"
        fill="currentColor"
    >
        <path d="M5.526 13.502c5.032 0 7.784-4.168 7.784-7.783 0-.119 0-.237-.008-.353a5.566 5.566 0 0 0 1.364-1.418 5.46 5.46 0 0 1-1.571.431c.571-.342.998-.88 1.203-1.513a5.483 5.483 0 0 1-1.737.664 2.738 2.738 0 0 0-4.662 2.495 7.767 7.767 0 0 1-5.638-2.858 2.737 2.737 0 0 0 .847 3.651 2.715 2.715 0 0 1-1.242-.341v.035a2.737 2.737 0 0 0 2.195 2.681 2.73 2.73 0 0 1-1.235.047 2.739 2.739 0 0 0 2.556 1.9 5.49 5.49 0 0 1-4.049 1.133A7.744 7.744 0 0 0 5.526 13.5" />
    </symbol>
</svg>